<mxfile host="app.diagrams.net" modified="2023-06-26T13:56:51.489Z" agent="Mozilla/5.0 (Windows NT 10.0; Win64; x64) AppleWebKit/537.36 (KHTML, like Gecko) Chrome/114.0.0.0 Safari/537.36" etag="b0q8_dlls6ftlVNql7L9" version="21.5.0" type="github">
  <diagram name="Page-1" id="7a6c530e-6e37-e111-ec74-82921da8cc10">
    <mxGraphModel dx="1434" dy="796" grid="1" gridSize="10" guides="1" tooltips="1" connect="1" arrows="1" fold="1" page="1" pageScale="1.5" pageWidth="1169" pageHeight="826" background="#184380" math="0" shadow="0">
      <root>
        <mxCell id="0" style=";html=1;" />
        <mxCell id="1" style=";html=1;" parent="0" />
        <mxCell id="23046e2b9bb16c14-116" value="DSC" style="whiteSpace=wrap;html=1;rounded=1;shadow=0;strokeColor=none;strokeWidth=2;fillColor=#009BFF;fontSize=20;fontColor=#FFFFFF;align=center;arcSize=3;verticalAlign=top;spacingTop=4;" parent="1" vertex="1">
          <mxGeometry x="287" y="217" width="1180" height="550" as="geometry" />
        </mxCell>
        <mxCell id="23046e2b9bb16c14-64" value="Server Side" style="rounded=1;whiteSpace=wrap;html=1;shadow=0;strokeWidth=2;fillColor=#0072BC;fontSize=12;fontColor=#FFFFFF;align=center;strokeColor=none;arcSize=3;verticalAlign=top;imageBorder=#152de0;" parent="1" vertex="1">
          <mxGeometry x="720" y="291" width="716" height="420" as="geometry" />
        </mxCell>
        <mxCell id="23046e2b9bb16c14-28" value="Client Side" style="rounded=1;whiteSpace=wrap;html=1;shadow=0;strokeWidth=2;fillColor=#F04D22;fontSize=12;fontColor=#FFFFFF;align=center;strokeColor=none;arcSize=6;verticalAlign=top;" parent="1" vertex="1">
          <mxGeometry x="361" y="327" width="230" height="373" as="geometry" />
        </mxCell>
        <mxCell id="23046e2b9bb16c14-50" value="ERP" style="rounded=1;whiteSpace=wrap;html=1;shadow=0;strokeWidth=2;fillColor=none;fontSize=12;fontColor=#ffffff;align=center;strokeColor=#FFFFFF;labelPosition=center;verticalLabelPosition=top;verticalAlign=bottom;" parent="1" vertex="1">
          <mxGeometry x="437" y="404" width="80" height="248" as="geometry" />
        </mxCell>
        <mxCell id="23046e2b9bb16c14-51" value="" style="verticalLabelPosition=bottom;html=1;verticalAlign=top;strokeColor=none;fillColor=#FFFFFF;shape=mxgraph.azure.computer;rounded=0;shadow=0;fontSize=12;fontColor=#000000;align=center;" parent="1" vertex="1">
          <mxGeometry x="451" y="504.5" width="50" height="45" as="geometry" />
        </mxCell>
        <mxCell id="23046e2b9bb16c14-67" value="Website" style="shadow=0;dashed=0;html=1;strokeColor=none;shape=mxgraph.mscae.enterprise.web;fillColor=#FFFFFF;rounded=1;fontSize=12;fontColor=#FFFFFF;align=center;verticalAlign=top;labelPosition=center;verticalLabelPosition=bottom;" parent="1" vertex="1">
          <mxGeometry x="1261" y="327" width="64" height="60" as="geometry" />
        </mxCell>
        <mxCell id="2Zz69iPxBMQuEs3rhBV3-3" value="Pre-IN" style="image;html=1;image=img/lib/clip_art/general/Full_Folder_128x128.png;labelBackgroundColor=none;fontColor=#ffffff;" vertex="1" parent="1">
          <mxGeometry x="760" y="398.5" width="80" height="80" as="geometry" />
        </mxCell>
        <mxCell id="2Zz69iPxBMQuEs3rhBV3-5" value="OUT" style="image;html=1;image=img/lib/clip_art/general/Full_Folder_128x128.png;labelBackgroundColor=none;fontColor=#ffffff;" vertex="1" parent="1">
          <mxGeometry x="760" y="557" width="80" height="80" as="geometry" />
        </mxCell>
        <mxCell id="2Zz69iPxBMQuEs3rhBV3-6" value="" style="shape=image;verticalLabelPosition=bottom;labelBackgroundColor=#ffffff;verticalAlign=top;aspect=fixed;imageAspect=0;image=data:image/svg+xml,PHN2ZyB4bWxuczpjYz0iaHR0cDovL2NyZWF0aXZlY29tbW9ucy5vcmcvbnMjIiB4bWxuczpkYz0iaHR0cDovL3B1cmwub3JnL2RjL2VsZW1lbnRzLzEuMS8iIHhtbG5zOmlua3NjYXBlPSJodHRwOi8vd3d3Lmlua3NjYXBlLm9yZy9uYW1lc3BhY2VzL2lua3NjYXBlIiB4bWxuczpyZGY9Imh0dHA6Ly93d3cudzMub3JnLzE5OTkvMDIvMjItcmRmLXN5bnRheC1ucyMiIHhtbG5zOnNvZGlwb2RpPSJodHRwOi8vc29kaXBvZGkuc291cmNlZm9yZ2UubmV0L0RURC9zb2RpcG9kaS0wLmR0ZCIgeG1sbnM6c3ZnPSJodHRwOi8vd3d3LnczLm9yZy8yMDAwL3N2ZyIgeG1sbnM9Imh0dHA6Ly93d3cudzMub3JnLzIwMDAvc3ZnIiB4bWxuczp4bGluaz0iaHR0cDovL3d3dy53My5vcmcvMTk5OS94bGluayIgdmVyc2lvbj0iMS4xIiBpZD0ic3ZnNTAyMzYiIGlua3NjYXBlOnZlcnNpb249IjAuOTIuMyAoMjQwNTU0NiwgMjAxOC0wMy0xMSkiIHNvZGlwb2RpOmRvY25hbWU9InBkZi5zdmciIHg9IjBweCIgeT0iMHB4IiB2aWV3Qm94PSIwIDAgMjYuOTkgMzUuMTUiIHN0eWxlPSJlbmFibGUtYmFja2dyb3VuZDpuZXcgMCAwIDI2Ljk5IDM1LjE1OyIgeG1sOnNwYWNlPSJwcmVzZXJ2ZSI+JiN4YTs8c29kaXBvZGk6bmFtZWR2aWV3IGJvcmRlcmNvbG9yPSIjNjY2NjY2IiBib3JkZXJvcGFjaXR5PSIxIiBmaXQtbWFyZ2luLWJvdHRvbT0iMCIgZml0LW1hcmdpbi1sZWZ0PSIwIiBmaXQtbWFyZ2luLXJpZ2h0PSIwIiBmaXQtbWFyZ2luLXRvcD0iMCIgZ3JpZHRvbGVyYW5jZT0iMTAiIGd1aWRldG9sZXJhbmNlPSIxMCIgaWQ9Im5hbWVkdmlldzUwMjM4IiBpbmtzY2FwZTpjdXJyZW50LWxheWVyPSJzdmc1MDIzNiIgaW5rc2NhcGU6Y3g9IjE3Ljk5NDM4NCIgaW5rc2NhcGU6Y3k9IjIzLjQzNTg1IiBpbmtzY2FwZTpwYWdlb3BhY2l0eT0iMCIgaW5rc2NhcGU6cGFnZXNoYWRvdz0iMiIgaW5rc2NhcGU6d2luZG93LWhlaWdodD0iMTAxNyIgaW5rc2NhcGU6d2luZG93LW1heGltaXplZD0iMSIgaW5rc2NhcGU6d2luZG93LXdpZHRoPSIxOTIwIiBpbmtzY2FwZTp3aW5kb3cteD0iLTgiIGlua3NjYXBlOndpbmRvdy15PSItOCIgaW5rc2NhcGU6em9vbT0iMTEuNDA2MDg5IiBvYmplY3R0b2xlcmFuY2U9IjEwIiBwYWdlY29sb3I9IiNmZmZmZmYiIHNob3dncmlkPSJmYWxzZSI+JiN4YTsJPC9zb2RpcG9kaTpuYW1lZHZpZXc+JiN4YTs8ZyBpZD0iZzUwMjM0IiB0cmFuc2Zvcm09InRyYW5zbGF0ZSgtMTAuOTI4NiwtMTAuOTMxNDM0KSI+JiN4YTsJPHRpdGxlIGlkPSJ0aXRsZTUwMTkxIj5QYWdlLTE8L3RpdGxlPiYjeGE7CTxnIGlkPSJncm91cDQyMDgtMSIgdHJhbnNmb3JtPSJ0cmFuc2xhdGUoMTAuOTI4NiwtMTAuOTI4NikiPiYjeGE7CQk8dGl0bGUgaWQ9InRpdGxlNTAxOTMiPlBERjwvdGl0bGU+JiN4YTsJCTxnIGlkPSJzaGFwZTQyMDktMiI+JiN4YTsJCQk8dGl0bGUgaWQ9InRpdGxlNTAxOTUiPlNoZWV0LjQyMDk8L3RpdGxlPiYjeGE7CQkJPHBhdGggaWQ9InBhdGg1MDE5NyIgaW5rc2NhcGU6Y29ubmVjdG9yLWN1cnZhdHVyZT0iMCIgc3R5bGU9ImZpbGw6I0U5RTlFMDsiIGQ9Ik0xOS4xNCwyMS44NkgwLjkyQzAuNDEsMjEuODYsMCwyMi4yNywwLDIzLjA3ICAgICB2MzMuMzFjMCwwLjIyLDAuNDEsMC42MywwLjkyLDAuNjNoMjUuMTVjMC41MSwwLDAuOTItMC40MSwwLjkyLTAuNjNWMzBjMC0wLjQzLTAuMDYtMC41Ny0wLjE2LTAuNjhsLTcuMy03LjMgICAgIEMxOS40MiwyMS45MiwxOS4yOCwyMS44NiwxOS4xNCwyMS44NnoiLz4mI3hhOwkJPC9nPiYjeGE7CQk8ZyBpZD0ic2hhcGU0MjEwLTQiIHRyYW5zZm9ybT0idHJhbnNsYXRlKDE5LjQ1OTEsLTI3LjYxOTMpIj4mI3hhOwkJCTx0aXRsZSBpZD0idGl0bGU1MDIwMCI+U2hlZXQuNDIxMDwvdGl0bGU+JiN4YTsJCQk8cGF0aCBpZD0icGF0aDUwMjAyIiBpbmtzY2FwZTpjb25uZWN0b3ItY3VydmF0dXJlPSIwIiBzdHlsZT0iZmlsbDojRDlEN0NBOyIgZD0iTTAsNDkuNTd2Ny40NGg3LjQ0TDAsNDkuNTd6Ii8+JiN4YTsJCTwvZz4mI3hhOwkJPGcgaWQ9InNoYXBlNDIxMS02IiB0cmFuc2Zvcm09InRyYW5zbGF0ZSg2LjgyMDcyLC0xNC4yMzQpIj4mI3hhOwkJCTx0aXRsZSBpZD0idGl0bGU1MDIwNSI+U2hlZXQuNDIxMTwvdGl0bGU+JiN4YTsJCQk8cGF0aCBpZD0icGF0aDUwMjA3IiBpbmtzY2FwZTpjb25uZWN0b3ItY3VydmF0dXJlPSIwIiBzdHlsZT0iZmlsbDojQzAwMDAwOyIgZD0iTTEuMzUsNTcuMDFjLTAuMjIsMC0wLjQzLTAuMDctMC42MS0wLjIxICAgICBjLTAuNjUtMC40OS0wLjc0LTEuMDMtMC43LTEuNGMwLjEyLTEuMDIsMS4zOC0yLjA5LDMuNzYtMy4xOGMwLjk0LTIuMDcsMS44NC00LjYyLDIuMzgtNi43NWMtMC42My0xLjM3LTEuMjQtMy4xMy0wLjgtNC4xNyAgICAgYzAuMTYtMC4zNywwLjM1LTAuNjQsMC43Mi0wLjc2YzAuMTQtMC4wNSwwLjUtMC4xMSwwLjYzLTAuMTFjMC4zMiwwLDAuNiwwLjQsMC44LDAuNjZjMC4xOCwwLjIzLDAuNiwwLjczLTAuMjQsNC4yNyAgICAgYzAuODUsMS43NCwyLjA1LDMuNTIsMy4yLDQuNzRjMC44Mi0wLjE1LDEuNTMtMC4yMiwyLjEtMC4yMmMwLjk5LDAsMS41OCwwLjIzLDEuODIsMC43YzAuMjEsMC4zOSwwLjEyLDAuODUtMC4yNCwxLjM1ICAgICBjLTAuMzUsMC40OS0wLjgzLDAuNzUtMS4zOSwwLjc1Yy0wLjc3LDAtMS42Ni0wLjQ4LTIuNjUtMS40M2MtMS43OCwwLjM3LTMuODYsMS4wMy01LjU0LDEuNzdjLTAuNTIsMS4xMS0xLjAzLDIuMDEtMS40OSwyLjY3ICAgICBDMi40NSw1Ni41OSwxLjksNTcuMDEsMS4zNSw1Ny4wMXogTTMuMDIsNTMuNzljLTEuMzQsMC43Ni0xLjg5LDEuMzctMS45MywxLjcyYzAsMC4wNi0wLjAyLDAuMjEsMC4yNywwLjQ0ICAgICBDMS40Niw1NS45MiwyLDU1LjY3LDMuMDIsNTMuNzl6IE0xMS41OCw1MWMwLjUxLDAuNCwwLjY0LDAuNiwwLjk3LDAuNmMwLjE1LDAsMC41Ny0wLjAxLDAuNzYtMC4yOCAgICAgYzAuMDktMC4xMywwLjEzLTAuMjIsMC4xNC0wLjI2Yy0wLjA3LTAuMDQtMC4xOC0wLjEzLTAuNzMtMC4xM0MxMi40LDUwLjk0LDEyLDUwLjk1LDExLjU4LDUxeiBNNi44OSw0Ni44NyAgICAgYy0wLjQ1LDEuNTUtMS4wNCwzLjIzLTEuNjgsNC43NWMxLjMxLTAuNTEsMi43NC0wLjk1LDQuMDgtMS4yN0M4LjQ0LDQ5LjM3LDcuNiw0OC4xNCw2Ljg5LDQ2Ljg3eiBNNi41MSw0MS41NiAgICAgYy0wLjA2LDAuMDItMC44NCwxLjEsMC4wNiwyLjAyQzcuMTcsNDIuMjUsNi41NCw0MS41NSw2LjUxLDQxLjU2eiIvPiYjeGE7CQk8L2c+JiN4YTsJCTxnIGlkPSJzaGFwZTQyMTItOCI+JiN4YTsJCQk8dGl0bGUgaWQ9InRpdGxlNTAyMTAiPlNoZWV0LjQyMTI8L3RpdGxlPiYjeGE7CQkJPHBhdGggaWQ9InBhdGg1MDIxMiIgaW5rc2NhcGU6Y29ubmVjdG9yLWN1cnZhdHVyZT0iMCIgc3R5bGU9ImZpbGw6I0MwMDAwMDsiIGQ9Ik0yNi4wNyw1Ny4wMUgwLjkyQzAuNDEsNTcuMDEsMCw1Ni42LDAsNTYuMDkgICAgIHYtOS43NWgyNi45OXY5Ljc1QzI2Ljk5LDU2LjYsMjYuNTgsNTcuMDEsMjYuMDcsNTcuMDF6Ii8+JiN4YTsJCTwvZz4mI3hhOwkJPGcgaWQ9Imdyb3VwNDIxMy0xMCIgdHJhbnNmb3JtPSJ0cmFuc2xhdGUoNS44MDI1NywtMS44ODMxNCkiPiYjeGE7CQkJPHRpdGxlIGlkPSJ0aXRsZTUwMjE1Ij5TaGVldC40MjEzPC90aXRsZT4mI3hhOwkJCTxnIGlkPSJzaGFwZTQyMTQtMTEiPiYjeGE7CQkJCTx0aXRsZSBpZD0idGl0bGU1MDIxNyI+U2hlZXQuNDIxNDwvdGl0bGU+JiN4YTsJCQkJPHBhdGggaWQ9InBhdGg1MDIxOSIgaW5rc2NhcGU6Y29ubmVjdG9yLWN1cnZhdHVyZT0iMCIgc3R5bGU9ImZpbGw6I0ZGRkZGRjsiIGQ9Ik0xLjAzLDU3LjAxSDB2LTYuMzNoMS44MiAgICAgIGMwLjI3LDAsMC41MywwLjA1LDAuOCwwLjEzYzAuMjYsMC4wOSwwLjUsMC4yMiwwLjcsMC4zOWMwLjIxLDAuMTcsMC4zOCwwLjM4LDAuNTEsMC42MmMwLjEzLDAuMjQsMC4xOSwwLjUyLDAuMTksMC44MiAgICAgIGMwLDAuMzItMC4wNSwwLjYxLTAuMTYsMC44N2MtMC4xMSwwLjI2LTAuMjYsMC40OC0wLjQ1LDAuNjZjLTAuMiwwLjE4LTAuNDMsMC4zMS0wLjcxLDAuNDFjLTAuMjcsMC4xLTAuNTgsMC4xNS0wLjkxLDAuMTVIMS4wMyAgICAgIFY1Ny4wMXogTTEuMDMsNTEuNDd2Mi41aDAuOTRjMC4xMywwLDAuMjUtMC4wMiwwLjM4LTAuMDZjMC4xMi0wLjA1LDAuMjMtMC4xMiwwLjM0LTAuMjFjMC4xLTAuMSwwLjE4LTAuMjQsMC4yNS0wLjQxICAgICAgQzMsNTMuMTEsMy4wMyw1Mi45LDMuMDMsNTIuNjRjMC0wLjEtMC4wMi0wLjIyLTAuMDQtMC4zNmMtMC4wMy0wLjEzLTAuMDktMC4yNi0wLjE4LTAuMzhjLTAuMDktMC4xMi0wLjIxLTAuMjMtMC4zNy0wLjMxICAgICAgYy0wLjE2LTAuMDgtMC4zNy0wLjEyLTAuNjQtMC4xMkwxLjAzLDUxLjQ3eiIvPiYjeGE7CQkJPC9nPiYjeGE7CQkJPGcgaWQ9InNoYXBlNDIxNS0xMyIgdHJhbnNmb3JtPSJ0cmFuc2xhdGUoNS4yMzUxMikiPiYjeGE7CQkJCTx0aXRsZSBpZD0idGl0bGU1MDIyMiI+U2hlZXQuNDIxNTwvdGl0bGU+JiN4YTsJCQkJPHBhdGggaWQ9InBhdGg1MDIyNCIgaW5rc2NhcGU6Y29ubmVjdG9yLWN1cnZhdHVyZT0iMCIgc3R5bGU9ImZpbGw6I0ZGRkZGRjsiIGQ9Ik01LjExLDUzLjY3YzAsMC41Mi0wLjA2LDAuOTctMC4xNywxLjM0ICAgICAgYy0wLjExLDAuMzYtMC4yNSwwLjY3LTAuNDMsMC45MmMtMC4xNywwLjI1LTAuMzYsMC40NS0wLjU4LDAuNTljLTAuMjEsMC4xNC0wLjQyLDAuMjUtMC42MiwwLjMyYy0wLjIsMC4wNy0wLjM4LDAuMTItMC41NSwwLjE0ICAgICAgQzIuNiw1NywyLjQ3LDU3LjAxLDIuMzksNTcuMDFIMHYtNi4zM2gxLjkxYzAuNTMsMCwxLDAuMDksMS40LDAuMjZzMC43NCwwLjM5LDEsMC42N2MwLjI3LDAuMjgsMC40NywwLjYsMC42LDAuOTYgICAgICBTNS4xMSw1My4yOSw1LjExLDUzLjY3eiBNMi4wNSw1Ni4yNWMwLjcsMCwxLjItMC4yMiwxLjUxLTAuNjdjMC4zMS0wLjQ0LDAuNDYtMS4wOSwwLjQ2LTEuOTNjMC0wLjI3LTAuMDMtMC41My0wLjA5LTAuNzkgICAgICBjLTAuMDYtMC4yNS0wLjE4LTAuNDktMC4zNi0wLjdjLTAuMTgtMC4yLTAuNDMtMC4zNy0wLjc0LTAuNXMtMC43MS0wLjE5LTEuMi0wLjE5aC0wLjZ2NC43OEgyLjA1eiIvPiYjeGE7CQkJPC9nPiYjeGE7CQkJPGcgaWQ9InNoYXBlNDIxNi0xNSIgdHJhbnNmb3JtPSJ0cmFuc2xhdGUoMTEuODM0OSkiPiYjeGE7CQkJCTx0aXRsZSBpZD0idGl0bGU1MDIyNyI+U2hlZXQuNDIxNjwvdGl0bGU+JiN4YTsJCQkJPHBhdGggaWQ9InBhdGg1MDIyOSIgaW5rc2NhcGU6Y29ubmVjdG9yLWN1cnZhdHVyZT0iMCIgc3R5bGU9ImZpbGw6I0ZGRkZGRjsiIGQ9Ik0xLjA1LDUxLjQ3djEuOTloMi42NHYwLjdIMS4wNXYyLjg1SDB2LTYuMzMgICAgICBoMy45NnYwLjc5SDEuMDV6Ii8+JiN4YTsJCQk8L2c+JiN4YTsJCTwvZz4mI3hhOwk8L2c+JiN4YTs8L2c+JiN4YTs8L3N2Zz4=;" vertex="1" parent="1">
          <mxGeometry x="620" y="409" width="27" height="35" as="geometry" />
        </mxCell>
        <mxCell id="2Zz69iPxBMQuEs3rhBV3-9" value="" style="shape=image;html=1;verticalAlign=top;verticalLabelPosition=bottom;labelBackgroundColor=#ffffff;imageAspect=0;aspect=fixed;image=https://cdn2.iconfinder.com/data/icons/boxicons-solid-vol-2/24/bxs-file-txt-128.png" vertex="1" parent="1">
          <mxGeometry x="647" y="406" width="43" height="43" as="geometry" />
        </mxCell>
        <mxCell id="2Zz69iPxBMQuEs3rhBV3-11" value="" style="endArrow=classic;html=1;rounded=0;fontColor=#ffffff;strokeColor=#ffffff;exitX=1;exitY=0.25;exitDx=0;exitDy=0;entryX=0;entryY=0.75;entryDx=0;entryDy=0;strokeWidth=2;" edge="1" parent="1" source="23046e2b9bb16c14-50" target="2Zz69iPxBMQuEs3rhBV3-3">
          <mxGeometry width="50" height="50" relative="1" as="geometry">
            <mxPoint x="534" y="490" as="sourcePoint" />
            <mxPoint x="584" y="440" as="targetPoint" />
          </mxGeometry>
        </mxCell>
        <mxCell id="2Zz69iPxBMQuEs3rhBV3-12" value="Pull,Import,Email Engines" style="image;aspect=fixed;html=1;points=[];align=center;fontSize=12;image=img/lib/azure2/iot/Windows10_Core_Services.svg;fontColor=#ffffff;labelBackgroundColor=none;" vertex="1" parent="1">
          <mxGeometry x="920" y="404" width="68" height="68" as="geometry" />
        </mxCell>
        <mxCell id="2Zz69iPxBMQuEs3rhBV3-13" value="Databases" style="image;aspect=fixed;perimeter=ellipsePerimeter;html=1;align=center;shadow=0;dashed=0;spacingTop=3;image=img/lib/active_directory/databases.svg;labelBackgroundColor=none;fontColor=#ffffff;" vertex="1" parent="1">
          <mxGeometry x="1086" y="400.5" width="71.43" height="70" as="geometry" />
        </mxCell>
        <mxCell id="2Zz69iPxBMQuEs3rhBV3-14" value="DSC Utility" style="image;aspect=fixed;html=1;points=[];align=center;fontSize=12;image=img/lib/mscae/Windows_10_IoT_Core_Services.svg;labelBackgroundColor=none;fontColor=#ffffff;imageBackground=none;fillStyle=zigzag-line;imageBorder=none;" vertex="1" parent="1">
          <mxGeometry x="1266" y="450" width="50" height="50" as="geometry" />
        </mxCell>
        <mxCell id="2Zz69iPxBMQuEs3rhBV3-15" value="IN" style="image;html=1;image=img/lib/clip_art/general/Full_Folder_128x128.png;labelBackgroundColor=none;fontColor=#ffffff;" vertex="1" parent="1">
          <mxGeometry x="1253" y="577" width="80" height="80" as="geometry" />
        </mxCell>
        <mxCell id="2Zz69iPxBMQuEs3rhBV3-16" value="Bot who open PDFs and sent it to Printer" style="shape=image;html=1;verticalAlign=top;verticalLabelPosition=bottom;labelBackgroundColor=none;imageAspect=0;aspect=fixed;image=https://cdn2.iconfinder.com/data/icons/competitive-strategy-and-corporate-training/512/199_robot_Android_artificial_bot_technology_app_development-128.png;fontColor=#ffffff;" vertex="1" parent="1">
          <mxGeometry x="998" y="560" width="97" height="97" as="geometry" />
        </mxCell>
        <mxCell id="2Zz69iPxBMQuEs3rhBV3-17" value="" style="endArrow=classic;html=1;rounded=0;fontColor=#ffffff;strokeColor=#ffffff;exitX=1;exitY=0.5;exitDx=0;exitDy=0;strokeWidth=2;" edge="1" parent="1" source="2Zz69iPxBMQuEs3rhBV3-3" target="2Zz69iPxBMQuEs3rhBV3-12">
          <mxGeometry width="50" height="50" relative="1" as="geometry">
            <mxPoint x="671" y="442" as="sourcePoint" />
            <mxPoint x="915" y="444" as="targetPoint" />
          </mxGeometry>
        </mxCell>
        <mxCell id="2Zz69iPxBMQuEs3rhBV3-19" value="" style="endArrow=classic;startArrow=classic;html=1;rounded=0;entryX=0;entryY=0.5;entryDx=0;entryDy=0;strokeColor=#ffffff;strokeWidth=2;" edge="1" parent="1" source="2Zz69iPxBMQuEs3rhBV3-12" target="2Zz69iPxBMQuEs3rhBV3-13">
          <mxGeometry width="50" height="50" relative="1" as="geometry">
            <mxPoint x="1013" y="490" as="sourcePoint" />
            <mxPoint x="1063" y="440" as="targetPoint" />
          </mxGeometry>
        </mxCell>
        <mxCell id="2Zz69iPxBMQuEs3rhBV3-20" value="" style="endArrow=classic;startArrow=classic;html=1;rounded=0;strokeColor=#ffffff;strokeWidth=2;exitX=1;exitY=0.5;exitDx=0;exitDy=0;" edge="1" parent="1" source="2Zz69iPxBMQuEs3rhBV3-13" target="2Zz69iPxBMQuEs3rhBV3-14">
          <mxGeometry width="50" height="50" relative="1" as="geometry">
            <mxPoint x="1166" y="447" as="sourcePoint" />
            <mxPoint x="1264" y="446" as="targetPoint" />
          </mxGeometry>
        </mxCell>
        <mxCell id="2Zz69iPxBMQuEs3rhBV3-21" value="" style="endArrow=classic;startArrow=classic;html=1;rounded=0;entryX=0.078;entryY=0.7;entryDx=0;entryDy=0;strokeColor=#ffffff;strokeWidth=2;entryPerimeter=0;exitX=1;exitY=0.5;exitDx=0;exitDy=0;" edge="1" parent="1" source="2Zz69iPxBMQuEs3rhBV3-13" target="23046e2b9bb16c14-67">
          <mxGeometry width="50" height="50" relative="1" as="geometry">
            <mxPoint x="1166" y="457" as="sourcePoint" />
            <mxPoint x="1264" y="456" as="targetPoint" />
          </mxGeometry>
        </mxCell>
        <mxCell id="2Zz69iPxBMQuEs3rhBV3-22" value="" style="endArrow=classic;html=1;rounded=0;fontColor=#ffffff;strokeColor=#ffffff;strokeWidth=2;entryX=0.5;entryY=0;entryDx=0;entryDy=0;" edge="1" parent="1" source="2Zz69iPxBMQuEs3rhBV3-14" target="2Zz69iPxBMQuEs3rhBV3-15">
          <mxGeometry width="50" height="50" relative="1" as="geometry">
            <mxPoint x="1259" y="545" as="sourcePoint" />
            <mxPoint x="1339" y="544" as="targetPoint" />
          </mxGeometry>
        </mxCell>
        <mxCell id="2Zz69iPxBMQuEs3rhBV3-23" value="" style="endArrow=classic;html=1;rounded=0;fontColor=#ffffff;strokeColor=#ffffff;strokeWidth=2;exitX=0;exitY=0.5;exitDx=0;exitDy=0;" edge="1" parent="1" source="2Zz69iPxBMQuEs3rhBV3-15" target="2Zz69iPxBMQuEs3rhBV3-16">
          <mxGeometry width="50" height="50" relative="1" as="geometry">
            <mxPoint x="1161" y="510" as="sourcePoint" />
            <mxPoint x="1163" y="587" as="targetPoint" />
          </mxGeometry>
        </mxCell>
        <mxCell id="2Zz69iPxBMQuEs3rhBV3-24" value="" style="endArrow=classic;html=1;rounded=0;fontColor=#ffffff;strokeColor=#ffffff;strokeWidth=2;exitX=0;exitY=0.5;exitDx=0;exitDy=0;entryX=1;entryY=0.5;entryDx=0;entryDy=0;" edge="1" parent="1" source="2Zz69iPxBMQuEs3rhBV3-16" target="2Zz69iPxBMQuEs3rhBV3-5">
          <mxGeometry width="50" height="50" relative="1" as="geometry">
            <mxPoint x="1002" y="627" as="sourcePoint" />
            <mxPoint x="844" y="620" as="targetPoint" />
          </mxGeometry>
        </mxCell>
        <mxCell id="2Zz69iPxBMQuEs3rhBV3-25" value="" style="shape=image;verticalLabelPosition=bottom;labelBackgroundColor=#ffffff;verticalAlign=top;aspect=fixed;imageAspect=0;image=data:image/svg+xml,PHN2ZyB4bWxuczpjYz0iaHR0cDovL2NyZWF0aXZlY29tbW9ucy5vcmcvbnMjIiB4bWxuczpkYz0iaHR0cDovL3B1cmwub3JnL2RjL2VsZW1lbnRzLzEuMS8iIHhtbG5zOmlua3NjYXBlPSJodHRwOi8vd3d3Lmlua3NjYXBlLm9yZy9uYW1lc3BhY2VzL2lua3NjYXBlIiB4bWxuczpyZGY9Imh0dHA6Ly93d3cudzMub3JnLzE5OTkvMDIvMjItcmRmLXN5bnRheC1ucyMiIHhtbG5zOnNvZGlwb2RpPSJodHRwOi8vc29kaXBvZGkuc291cmNlZm9yZ2UubmV0L0RURC9zb2RpcG9kaS0wLmR0ZCIgeG1sbnM6c3ZnPSJodHRwOi8vd3d3LnczLm9yZy8yMDAwL3N2ZyIgeG1sbnM9Imh0dHA6Ly93d3cudzMub3JnLzIwMDAvc3ZnIiB4bWxuczp4bGluaz0iaHR0cDovL3d3dy53My5vcmcvMTk5OS94bGluayIgdmVyc2lvbj0iMS4xIiBpZD0ic3ZnNTAyMzYiIGlua3NjYXBlOnZlcnNpb249IjAuOTIuMyAoMjQwNTU0NiwgMjAxOC0wMy0xMSkiIHNvZGlwb2RpOmRvY25hbWU9InBkZi5zdmciIHg9IjBweCIgeT0iMHB4IiB2aWV3Qm94PSIwIDAgMjYuOTkgMzUuMTUiIHN0eWxlPSJlbmFibGUtYmFja2dyb3VuZDpuZXcgMCAwIDI2Ljk5IDM1LjE1OyIgeG1sOnNwYWNlPSJwcmVzZXJ2ZSI+JiN4YTs8c29kaXBvZGk6bmFtZWR2aWV3IGJvcmRlcmNvbG9yPSIjNjY2NjY2IiBib3JkZXJvcGFjaXR5PSIxIiBmaXQtbWFyZ2luLWJvdHRvbT0iMCIgZml0LW1hcmdpbi1sZWZ0PSIwIiBmaXQtbWFyZ2luLXJpZ2h0PSIwIiBmaXQtbWFyZ2luLXRvcD0iMCIgZ3JpZHRvbGVyYW5jZT0iMTAiIGd1aWRldG9sZXJhbmNlPSIxMCIgaWQ9Im5hbWVkdmlldzUwMjM4IiBpbmtzY2FwZTpjdXJyZW50LWxheWVyPSJzdmc1MDIzNiIgaW5rc2NhcGU6Y3g9IjE3Ljk5NDM4NCIgaW5rc2NhcGU6Y3k9IjIzLjQzNTg1IiBpbmtzY2FwZTpwYWdlb3BhY2l0eT0iMCIgaW5rc2NhcGU6cGFnZXNoYWRvdz0iMiIgaW5rc2NhcGU6d2luZG93LWhlaWdodD0iMTAxNyIgaW5rc2NhcGU6d2luZG93LW1heGltaXplZD0iMSIgaW5rc2NhcGU6d2luZG93LXdpZHRoPSIxOTIwIiBpbmtzY2FwZTp3aW5kb3cteD0iLTgiIGlua3NjYXBlOndpbmRvdy15PSItOCIgaW5rc2NhcGU6em9vbT0iMTEuNDA2MDg5IiBvYmplY3R0b2xlcmFuY2U9IjEwIiBwYWdlY29sb3I9IiNmZmZmZmYiIHNob3dncmlkPSJmYWxzZSI+JiN4YTsJPC9zb2RpcG9kaTpuYW1lZHZpZXc+JiN4YTs8ZyBpZD0iZzUwMjM0IiB0cmFuc2Zvcm09InRyYW5zbGF0ZSgtMTAuOTI4NiwtMTAuOTMxNDM0KSI+JiN4YTsJPHRpdGxlIGlkPSJ0aXRsZTUwMTkxIj5QYWdlLTE8L3RpdGxlPiYjeGE7CTxnIGlkPSJncm91cDQyMDgtMSIgdHJhbnNmb3JtPSJ0cmFuc2xhdGUoMTAuOTI4NiwtMTAuOTI4NikiPiYjeGE7CQk8dGl0bGUgaWQ9InRpdGxlNTAxOTMiPlBERjwvdGl0bGU+JiN4YTsJCTxnIGlkPSJzaGFwZTQyMDktMiI+JiN4YTsJCQk8dGl0bGUgaWQ9InRpdGxlNTAxOTUiPlNoZWV0LjQyMDk8L3RpdGxlPiYjeGE7CQkJPHBhdGggaWQ9InBhdGg1MDE5NyIgaW5rc2NhcGU6Y29ubmVjdG9yLWN1cnZhdHVyZT0iMCIgc3R5bGU9ImZpbGw6I0U5RTlFMDsiIGQ9Ik0xOS4xNCwyMS44NkgwLjkyQzAuNDEsMjEuODYsMCwyMi4yNywwLDIzLjA3ICAgICB2MzMuMzFjMCwwLjIyLDAuNDEsMC42MywwLjkyLDAuNjNoMjUuMTVjMC41MSwwLDAuOTItMC40MSwwLjkyLTAuNjNWMzBjMC0wLjQzLTAuMDYtMC41Ny0wLjE2LTAuNjhsLTcuMy03LjMgICAgIEMxOS40MiwyMS45MiwxOS4yOCwyMS44NiwxOS4xNCwyMS44NnoiLz4mI3hhOwkJPC9nPiYjeGE7CQk8ZyBpZD0ic2hhcGU0MjEwLTQiIHRyYW5zZm9ybT0idHJhbnNsYXRlKDE5LjQ1OTEsLTI3LjYxOTMpIj4mI3hhOwkJCTx0aXRsZSBpZD0idGl0bGU1MDIwMCI+U2hlZXQuNDIxMDwvdGl0bGU+JiN4YTsJCQk8cGF0aCBpZD0icGF0aDUwMjAyIiBpbmtzY2FwZTpjb25uZWN0b3ItY3VydmF0dXJlPSIwIiBzdHlsZT0iZmlsbDojRDlEN0NBOyIgZD0iTTAsNDkuNTd2Ny40NGg3LjQ0TDAsNDkuNTd6Ii8+JiN4YTsJCTwvZz4mI3hhOwkJPGcgaWQ9InNoYXBlNDIxMS02IiB0cmFuc2Zvcm09InRyYW5zbGF0ZSg2LjgyMDcyLC0xNC4yMzQpIj4mI3hhOwkJCTx0aXRsZSBpZD0idGl0bGU1MDIwNSI+U2hlZXQuNDIxMTwvdGl0bGU+JiN4YTsJCQk8cGF0aCBpZD0icGF0aDUwMjA3IiBpbmtzY2FwZTpjb25uZWN0b3ItY3VydmF0dXJlPSIwIiBzdHlsZT0iZmlsbDojQzAwMDAwOyIgZD0iTTEuMzUsNTcuMDFjLTAuMjIsMC0wLjQzLTAuMDctMC42MS0wLjIxICAgICBjLTAuNjUtMC40OS0wLjc0LTEuMDMtMC43LTEuNGMwLjEyLTEuMDIsMS4zOC0yLjA5LDMuNzYtMy4xOGMwLjk0LTIuMDcsMS44NC00LjYyLDIuMzgtNi43NWMtMC42My0xLjM3LTEuMjQtMy4xMy0wLjgtNC4xNyAgICAgYzAuMTYtMC4zNywwLjM1LTAuNjQsMC43Mi0wLjc2YzAuMTQtMC4wNSwwLjUtMC4xMSwwLjYzLTAuMTFjMC4zMiwwLDAuNiwwLjQsMC44LDAuNjZjMC4xOCwwLjIzLDAuNiwwLjczLTAuMjQsNC4yNyAgICAgYzAuODUsMS43NCwyLjA1LDMuNTIsMy4yLDQuNzRjMC44Mi0wLjE1LDEuNTMtMC4yMiwyLjEtMC4yMmMwLjk5LDAsMS41OCwwLjIzLDEuODIsMC43YzAuMjEsMC4zOSwwLjEyLDAuODUtMC4yNCwxLjM1ICAgICBjLTAuMzUsMC40OS0wLjgzLDAuNzUtMS4zOSwwLjc1Yy0wLjc3LDAtMS42Ni0wLjQ4LTIuNjUtMS40M2MtMS43OCwwLjM3LTMuODYsMS4wMy01LjU0LDEuNzdjLTAuNTIsMS4xMS0xLjAzLDIuMDEtMS40OSwyLjY3ICAgICBDMi40NSw1Ni41OSwxLjksNTcuMDEsMS4zNSw1Ny4wMXogTTMuMDIsNTMuNzljLTEuMzQsMC43Ni0xLjg5LDEuMzctMS45MywxLjcyYzAsMC4wNi0wLjAyLDAuMjEsMC4yNywwLjQ0ICAgICBDMS40Niw1NS45MiwyLDU1LjY3LDMuMDIsNTMuNzl6IE0xMS41OCw1MWMwLjUxLDAuNCwwLjY0LDAuNiwwLjk3LDAuNmMwLjE1LDAsMC41Ny0wLjAxLDAuNzYtMC4yOCAgICAgYzAuMDktMC4xMywwLjEzLTAuMjIsMC4xNC0wLjI2Yy0wLjA3LTAuMDQtMC4xOC0wLjEzLTAuNzMtMC4xM0MxMi40LDUwLjk0LDEyLDUwLjk1LDExLjU4LDUxeiBNNi44OSw0Ni44NyAgICAgYy0wLjQ1LDEuNTUtMS4wNCwzLjIzLTEuNjgsNC43NWMxLjMxLTAuNTEsMi43NC0wLjk1LDQuMDgtMS4yN0M4LjQ0LDQ5LjM3LDcuNiw0OC4xNCw2Ljg5LDQ2Ljg3eiBNNi41MSw0MS41NiAgICAgYy0wLjA2LDAuMDItMC44NCwxLjEsMC4wNiwyLjAyQzcuMTcsNDIuMjUsNi41NCw0MS41NSw2LjUxLDQxLjU2eiIvPiYjeGE7CQk8L2c+JiN4YTsJCTxnIGlkPSJzaGFwZTQyMTItOCI+JiN4YTsJCQk8dGl0bGUgaWQ9InRpdGxlNTAyMTAiPlNoZWV0LjQyMTI8L3RpdGxlPiYjeGE7CQkJPHBhdGggaWQ9InBhdGg1MDIxMiIgaW5rc2NhcGU6Y29ubmVjdG9yLWN1cnZhdHVyZT0iMCIgc3R5bGU9ImZpbGw6I0MwMDAwMDsiIGQ9Ik0yNi4wNyw1Ny4wMUgwLjkyQzAuNDEsNTcuMDEsMCw1Ni42LDAsNTYuMDkgICAgIHYtOS43NWgyNi45OXY5Ljc1QzI2Ljk5LDU2LjYsMjYuNTgsNTcuMDEsMjYuMDcsNTcuMDF6Ii8+JiN4YTsJCTwvZz4mI3hhOwkJPGcgaWQ9Imdyb3VwNDIxMy0xMCIgdHJhbnNmb3JtPSJ0cmFuc2xhdGUoNS44MDI1NywtMS44ODMxNCkiPiYjeGE7CQkJPHRpdGxlIGlkPSJ0aXRsZTUwMjE1Ij5TaGVldC40MjEzPC90aXRsZT4mI3hhOwkJCTxnIGlkPSJzaGFwZTQyMTQtMTEiPiYjeGE7CQkJCTx0aXRsZSBpZD0idGl0bGU1MDIxNyI+U2hlZXQuNDIxNDwvdGl0bGU+JiN4YTsJCQkJPHBhdGggaWQ9InBhdGg1MDIxOSIgaW5rc2NhcGU6Y29ubmVjdG9yLWN1cnZhdHVyZT0iMCIgc3R5bGU9ImZpbGw6I0ZGRkZGRjsiIGQ9Ik0xLjAzLDU3LjAxSDB2LTYuMzNoMS44MiAgICAgIGMwLjI3LDAsMC41MywwLjA1LDAuOCwwLjEzYzAuMjYsMC4wOSwwLjUsMC4yMiwwLjcsMC4zOWMwLjIxLDAuMTcsMC4zOCwwLjM4LDAuNTEsMC42MmMwLjEzLDAuMjQsMC4xOSwwLjUyLDAuMTksMC44MiAgICAgIGMwLDAuMzItMC4wNSwwLjYxLTAuMTYsMC44N2MtMC4xMSwwLjI2LTAuMjYsMC40OC0wLjQ1LDAuNjZjLTAuMiwwLjE4LTAuNDMsMC4zMS0wLjcxLDAuNDFjLTAuMjcsMC4xLTAuNTgsMC4xNS0wLjkxLDAuMTVIMS4wMyAgICAgIFY1Ny4wMXogTTEuMDMsNTEuNDd2Mi41aDAuOTRjMC4xMywwLDAuMjUtMC4wMiwwLjM4LTAuMDZjMC4xMi0wLjA1LDAuMjMtMC4xMiwwLjM0LTAuMjFjMC4xLTAuMSwwLjE4LTAuMjQsMC4yNS0wLjQxICAgICAgQzMsNTMuMTEsMy4wMyw1Mi45LDMuMDMsNTIuNjRjMC0wLjEtMC4wMi0wLjIyLTAuMDQtMC4zNmMtMC4wMy0wLjEzLTAuMDktMC4yNi0wLjE4LTAuMzhjLTAuMDktMC4xMi0wLjIxLTAuMjMtMC4zNy0wLjMxICAgICAgYy0wLjE2LTAuMDgtMC4zNy0wLjEyLTAuNjQtMC4xMkwxLjAzLDUxLjQ3eiIvPiYjeGE7CQkJPC9nPiYjeGE7CQkJPGcgaWQ9InNoYXBlNDIxNS0xMyIgdHJhbnNmb3JtPSJ0cmFuc2xhdGUoNS4yMzUxMikiPiYjeGE7CQkJCTx0aXRsZSBpZD0idGl0bGU1MDIyMiI+U2hlZXQuNDIxNTwvdGl0bGU+JiN4YTsJCQkJPHBhdGggaWQ9InBhdGg1MDIyNCIgaW5rc2NhcGU6Y29ubmVjdG9yLWN1cnZhdHVyZT0iMCIgc3R5bGU9ImZpbGw6I0ZGRkZGRjsiIGQ9Ik01LjExLDUzLjY3YzAsMC41Mi0wLjA2LDAuOTctMC4xNywxLjM0ICAgICAgYy0wLjExLDAuMzYtMC4yNSwwLjY3LTAuNDMsMC45MmMtMC4xNywwLjI1LTAuMzYsMC40NS0wLjU4LDAuNTljLTAuMjEsMC4xNC0wLjQyLDAuMjUtMC42MiwwLjMyYy0wLjIsMC4wNy0wLjM4LDAuMTItMC41NSwwLjE0ICAgICAgQzIuNiw1NywyLjQ3LDU3LjAxLDIuMzksNTcuMDFIMHYtNi4zM2gxLjkxYzAuNTMsMCwxLDAuMDksMS40LDAuMjZzMC43NCwwLjM5LDEsMC42N2MwLjI3LDAuMjgsMC40NywwLjYsMC42LDAuOTYgICAgICBTNS4xMSw1My4yOSw1LjExLDUzLjY3eiBNMi4wNSw1Ni4yNWMwLjcsMCwxLjItMC4yMiwxLjUxLTAuNjdjMC4zMS0wLjQ0LDAuNDYtMS4wOSwwLjQ2LTEuOTNjMC0wLjI3LTAuMDMtMC41My0wLjA5LTAuNzkgICAgICBjLTAuMDYtMC4yNS0wLjE4LTAuNDktMC4zNi0wLjdjLTAuMTgtMC4yLTAuNDMtMC4zNy0wLjc0LTAuNXMtMC43MS0wLjE5LTEuMi0wLjE5aC0wLjZ2NC43OEgyLjA1eiIvPiYjeGE7CQkJPC9nPiYjeGE7CQkJPGcgaWQ9InNoYXBlNDIxNi0xNSIgdHJhbnNmb3JtPSJ0cmFuc2xhdGUoMTEuODM0OSkiPiYjeGE7CQkJCTx0aXRsZSBpZD0idGl0bGU1MDIyNyI+U2hlZXQuNDIxNjwvdGl0bGU+JiN4YTsJCQkJPHBhdGggaWQ9InBhdGg1MDIyOSIgaW5rc2NhcGU6Y29ubmVjdG9yLWN1cnZhdHVyZT0iMCIgc3R5bGU9ImZpbGw6I0ZGRkZGRjsiIGQ9Ik0xLjA1LDUxLjQ3djEuOTloMi42NHYwLjdIMS4wNXYyLjg1SDB2LTYuMzMgICAgICBoMy45NnYwLjc5SDEuMDV6Ii8+JiN4YTsJCQk8L2c+JiN4YTsJCTwvZz4mI3hhOwk8L2c+JiN4YTs8L2c+JiN4YTs8L3N2Zz4=;" vertex="1" parent="1">
          <mxGeometry x="873" y="556" width="27" height="35" as="geometry" />
        </mxCell>
        <mxCell id="2Zz69iPxBMQuEs3rhBV3-26" value="" style="shape=image;verticalLabelPosition=bottom;labelBackgroundColor=#ffffff;verticalAlign=top;aspect=fixed;imageAspect=0;image=data:image/svg+xml,PHN2ZyB4bWxuczpjYz0iaHR0cDovL2NyZWF0aXZlY29tbW9ucy5vcmcvbnMjIiB4bWxuczpkYz0iaHR0cDovL3B1cmwub3JnL2RjL2VsZW1lbnRzLzEuMS8iIHhtbG5zOmlua3NjYXBlPSJodHRwOi8vd3d3Lmlua3NjYXBlLm9yZy9uYW1lc3BhY2VzL2lua3NjYXBlIiB4bWxuczpyZGY9Imh0dHA6Ly93d3cudzMub3JnLzE5OTkvMDIvMjItcmRmLXN5bnRheC1ucyMiIHhtbG5zOnNvZGlwb2RpPSJodHRwOi8vc29kaXBvZGkuc291cmNlZm9yZ2UubmV0L0RURC9zb2RpcG9kaS0wLmR0ZCIgeG1sbnM6c3ZnPSJodHRwOi8vd3d3LnczLm9yZy8yMDAwL3N2ZyIgeG1sbnM9Imh0dHA6Ly93d3cudzMub3JnLzIwMDAvc3ZnIiB4bWxuczp4bGluaz0iaHR0cDovL3d3dy53My5vcmcvMTk5OS94bGluayIgdmVyc2lvbj0iMS4xIiBpZD0ic3ZnNTAyMzYiIGlua3NjYXBlOnZlcnNpb249IjAuOTIuMyAoMjQwNTU0NiwgMjAxOC0wMy0xMSkiIHNvZGlwb2RpOmRvY25hbWU9InBkZi5zdmciIHg9IjBweCIgeT0iMHB4IiB2aWV3Qm94PSIwIDAgMjYuOTkgMzUuMTUiIHN0eWxlPSJlbmFibGUtYmFja2dyb3VuZDpuZXcgMCAwIDI2Ljk5IDM1LjE1OyIgeG1sOnNwYWNlPSJwcmVzZXJ2ZSI+JiN4YTs8c29kaXBvZGk6bmFtZWR2aWV3IGJvcmRlcmNvbG9yPSIjNjY2NjY2IiBib3JkZXJvcGFjaXR5PSIxIiBmaXQtbWFyZ2luLWJvdHRvbT0iMCIgZml0LW1hcmdpbi1sZWZ0PSIwIiBmaXQtbWFyZ2luLXJpZ2h0PSIwIiBmaXQtbWFyZ2luLXRvcD0iMCIgZ3JpZHRvbGVyYW5jZT0iMTAiIGd1aWRldG9sZXJhbmNlPSIxMCIgaWQ9Im5hbWVkdmlldzUwMjM4IiBpbmtzY2FwZTpjdXJyZW50LWxheWVyPSJzdmc1MDIzNiIgaW5rc2NhcGU6Y3g9IjE3Ljk5NDM4NCIgaW5rc2NhcGU6Y3k9IjIzLjQzNTg1IiBpbmtzY2FwZTpwYWdlb3BhY2l0eT0iMCIgaW5rc2NhcGU6cGFnZXNoYWRvdz0iMiIgaW5rc2NhcGU6d2luZG93LWhlaWdodD0iMTAxNyIgaW5rc2NhcGU6d2luZG93LW1heGltaXplZD0iMSIgaW5rc2NhcGU6d2luZG93LXdpZHRoPSIxOTIwIiBpbmtzY2FwZTp3aW5kb3cteD0iLTgiIGlua3NjYXBlOndpbmRvdy15PSItOCIgaW5rc2NhcGU6em9vbT0iMTEuNDA2MDg5IiBvYmplY3R0b2xlcmFuY2U9IjEwIiBwYWdlY29sb3I9IiNmZmZmZmYiIHNob3dncmlkPSJmYWxzZSI+JiN4YTsJPC9zb2RpcG9kaTpuYW1lZHZpZXc+JiN4YTs8ZyBpZD0iZzUwMjM0IiB0cmFuc2Zvcm09InRyYW5zbGF0ZSgtMTAuOTI4NiwtMTAuOTMxNDM0KSI+JiN4YTsJPHRpdGxlIGlkPSJ0aXRsZTUwMTkxIj5QYWdlLTE8L3RpdGxlPiYjeGE7CTxnIGlkPSJncm91cDQyMDgtMSIgdHJhbnNmb3JtPSJ0cmFuc2xhdGUoMTAuOTI4NiwtMTAuOTI4NikiPiYjeGE7CQk8dGl0bGUgaWQ9InRpdGxlNTAxOTMiPlBERjwvdGl0bGU+JiN4YTsJCTxnIGlkPSJzaGFwZTQyMDktMiI+JiN4YTsJCQk8dGl0bGUgaWQ9InRpdGxlNTAxOTUiPlNoZWV0LjQyMDk8L3RpdGxlPiYjeGE7CQkJPHBhdGggaWQ9InBhdGg1MDE5NyIgaW5rc2NhcGU6Y29ubmVjdG9yLWN1cnZhdHVyZT0iMCIgc3R5bGU9ImZpbGw6I0U5RTlFMDsiIGQ9Ik0xOS4xNCwyMS44NkgwLjkyQzAuNDEsMjEuODYsMCwyMi4yNywwLDIzLjA3ICAgICB2MzMuMzFjMCwwLjIyLDAuNDEsMC42MywwLjkyLDAuNjNoMjUuMTVjMC41MSwwLDAuOTItMC40MSwwLjkyLTAuNjNWMzBjMC0wLjQzLTAuMDYtMC41Ny0wLjE2LTAuNjhsLTcuMy03LjMgICAgIEMxOS40MiwyMS45MiwxOS4yOCwyMS44NiwxOS4xNCwyMS44NnoiLz4mI3hhOwkJPC9nPiYjeGE7CQk8ZyBpZD0ic2hhcGU0MjEwLTQiIHRyYW5zZm9ybT0idHJhbnNsYXRlKDE5LjQ1OTEsLTI3LjYxOTMpIj4mI3hhOwkJCTx0aXRsZSBpZD0idGl0bGU1MDIwMCI+U2hlZXQuNDIxMDwvdGl0bGU+JiN4YTsJCQk8cGF0aCBpZD0icGF0aDUwMjAyIiBpbmtzY2FwZTpjb25uZWN0b3ItY3VydmF0dXJlPSIwIiBzdHlsZT0iZmlsbDojRDlEN0NBOyIgZD0iTTAsNDkuNTd2Ny40NGg3LjQ0TDAsNDkuNTd6Ii8+JiN4YTsJCTwvZz4mI3hhOwkJPGcgaWQ9InNoYXBlNDIxMS02IiB0cmFuc2Zvcm09InRyYW5zbGF0ZSg2LjgyMDcyLC0xNC4yMzQpIj4mI3hhOwkJCTx0aXRsZSBpZD0idGl0bGU1MDIwNSI+U2hlZXQuNDIxMTwvdGl0bGU+JiN4YTsJCQk8cGF0aCBpZD0icGF0aDUwMjA3IiBpbmtzY2FwZTpjb25uZWN0b3ItY3VydmF0dXJlPSIwIiBzdHlsZT0iZmlsbDojQzAwMDAwOyIgZD0iTTEuMzUsNTcuMDFjLTAuMjIsMC0wLjQzLTAuMDctMC42MS0wLjIxICAgICBjLTAuNjUtMC40OS0wLjc0LTEuMDMtMC43LTEuNGMwLjEyLTEuMDIsMS4zOC0yLjA5LDMuNzYtMy4xOGMwLjk0LTIuMDcsMS44NC00LjYyLDIuMzgtNi43NWMtMC42My0xLjM3LTEuMjQtMy4xMy0wLjgtNC4xNyAgICAgYzAuMTYtMC4zNywwLjM1LTAuNjQsMC43Mi0wLjc2YzAuMTQtMC4wNSwwLjUtMC4xMSwwLjYzLTAuMTFjMC4zMiwwLDAuNiwwLjQsMC44LDAuNjZjMC4xOCwwLjIzLDAuNiwwLjczLTAuMjQsNC4yNyAgICAgYzAuODUsMS43NCwyLjA1LDMuNTIsMy4yLDQuNzRjMC44Mi0wLjE1LDEuNTMtMC4yMiwyLjEtMC4yMmMwLjk5LDAsMS41OCwwLjIzLDEuODIsMC43YzAuMjEsMC4zOSwwLjEyLDAuODUtMC4yNCwxLjM1ICAgICBjLTAuMzUsMC40OS0wLjgzLDAuNzUtMS4zOSwwLjc1Yy0wLjc3LDAtMS42Ni0wLjQ4LTIuNjUtMS40M2MtMS43OCwwLjM3LTMuODYsMS4wMy01LjU0LDEuNzdjLTAuNTIsMS4xMS0xLjAzLDIuMDEtMS40OSwyLjY3ICAgICBDMi40NSw1Ni41OSwxLjksNTcuMDEsMS4zNSw1Ny4wMXogTTMuMDIsNTMuNzljLTEuMzQsMC43Ni0xLjg5LDEuMzctMS45MywxLjcyYzAsMC4wNi0wLjAyLDAuMjEsMC4yNywwLjQ0ICAgICBDMS40Niw1NS45MiwyLDU1LjY3LDMuMDIsNTMuNzl6IE0xMS41OCw1MWMwLjUxLDAuNCwwLjY0LDAuNiwwLjk3LDAuNmMwLjE1LDAsMC41Ny0wLjAxLDAuNzYtMC4yOCAgICAgYzAuMDktMC4xMywwLjEzLTAuMjIsMC4xNC0wLjI2Yy0wLjA3LTAuMDQtMC4xOC0wLjEzLTAuNzMtMC4xM0MxMi40LDUwLjk0LDEyLDUwLjk1LDExLjU4LDUxeiBNNi44OSw0Ni44NyAgICAgYy0wLjQ1LDEuNTUtMS4wNCwzLjIzLTEuNjgsNC43NWMxLjMxLTAuNTEsMi43NC0wLjk1LDQuMDgtMS4yN0M4LjQ0LDQ5LjM3LDcuNiw0OC4xNCw2Ljg5LDQ2Ljg3eiBNNi41MSw0MS41NiAgICAgYy0wLjA2LDAuMDItMC44NCwxLjEsMC4wNiwyLjAyQzcuMTcsNDIuMjUsNi41NCw0MS41NSw2LjUxLDQxLjU2eiIvPiYjeGE7CQk8L2c+JiN4YTsJCTxnIGlkPSJzaGFwZTQyMTItOCI+JiN4YTsJCQk8dGl0bGUgaWQ9InRpdGxlNTAyMTAiPlNoZWV0LjQyMTI8L3RpdGxlPiYjeGE7CQkJPHBhdGggaWQ9InBhdGg1MDIxMiIgaW5rc2NhcGU6Y29ubmVjdG9yLWN1cnZhdHVyZT0iMCIgc3R5bGU9ImZpbGw6I0MwMDAwMDsiIGQ9Ik0yNi4wNyw1Ny4wMUgwLjkyQzAuNDEsNTcuMDEsMCw1Ni42LDAsNTYuMDkgICAgIHYtOS43NWgyNi45OXY5Ljc1QzI2Ljk5LDU2LjYsMjYuNTgsNTcuMDEsMjYuMDcsNTcuMDF6Ii8+JiN4YTsJCTwvZz4mI3hhOwkJPGcgaWQ9Imdyb3VwNDIxMy0xMCIgdHJhbnNmb3JtPSJ0cmFuc2xhdGUoNS44MDI1NywtMS44ODMxNCkiPiYjeGE7CQkJPHRpdGxlIGlkPSJ0aXRsZTUwMjE1Ij5TaGVldC40MjEzPC90aXRsZT4mI3hhOwkJCTxnIGlkPSJzaGFwZTQyMTQtMTEiPiYjeGE7CQkJCTx0aXRsZSBpZD0idGl0bGU1MDIxNyI+U2hlZXQuNDIxNDwvdGl0bGU+JiN4YTsJCQkJPHBhdGggaWQ9InBhdGg1MDIxOSIgaW5rc2NhcGU6Y29ubmVjdG9yLWN1cnZhdHVyZT0iMCIgc3R5bGU9ImZpbGw6I0ZGRkZGRjsiIGQ9Ik0xLjAzLDU3LjAxSDB2LTYuMzNoMS44MiAgICAgIGMwLjI3LDAsMC41MywwLjA1LDAuOCwwLjEzYzAuMjYsMC4wOSwwLjUsMC4yMiwwLjcsMC4zOWMwLjIxLDAuMTcsMC4zOCwwLjM4LDAuNTEsMC42MmMwLjEzLDAuMjQsMC4xOSwwLjUyLDAuMTksMC44MiAgICAgIGMwLDAuMzItMC4wNSwwLjYxLTAuMTYsMC44N2MtMC4xMSwwLjI2LTAuMjYsMC40OC0wLjQ1LDAuNjZjLTAuMiwwLjE4LTAuNDMsMC4zMS0wLjcxLDAuNDFjLTAuMjcsMC4xLTAuNTgsMC4xNS0wLjkxLDAuMTVIMS4wMyAgICAgIFY1Ny4wMXogTTEuMDMsNTEuNDd2Mi41aDAuOTRjMC4xMywwLDAuMjUtMC4wMiwwLjM4LTAuMDZjMC4xMi0wLjA1LDAuMjMtMC4xMiwwLjM0LTAuMjFjMC4xLTAuMSwwLjE4LTAuMjQsMC4yNS0wLjQxICAgICAgQzMsNTMuMTEsMy4wMyw1Mi45LDMuMDMsNTIuNjRjMC0wLjEtMC4wMi0wLjIyLTAuMDQtMC4zNmMtMC4wMy0wLjEzLTAuMDktMC4yNi0wLjE4LTAuMzhjLTAuMDktMC4xMi0wLjIxLTAuMjMtMC4zNy0wLjMxICAgICAgYy0wLjE2LTAuMDgtMC4zNy0wLjEyLTAuNjQtMC4xMkwxLjAzLDUxLjQ3eiIvPiYjeGE7CQkJPC9nPiYjeGE7CQkJPGcgaWQ9InNoYXBlNDIxNS0xMyIgdHJhbnNmb3JtPSJ0cmFuc2xhdGUoNS4yMzUxMikiPiYjeGE7CQkJCTx0aXRsZSBpZD0idGl0bGU1MDIyMiI+U2hlZXQuNDIxNTwvdGl0bGU+JiN4YTsJCQkJPHBhdGggaWQ9InBhdGg1MDIyNCIgaW5rc2NhcGU6Y29ubmVjdG9yLWN1cnZhdHVyZT0iMCIgc3R5bGU9ImZpbGw6I0ZGRkZGRjsiIGQ9Ik01LjExLDUzLjY3YzAsMC41Mi0wLjA2LDAuOTctMC4xNywxLjM0ICAgICAgYy0wLjExLDAuMzYtMC4yNSwwLjY3LTAuNDMsMC45MmMtMC4xNywwLjI1LTAuMzYsMC40NS0wLjU4LDAuNTljLTAuMjEsMC4xNC0wLjQyLDAuMjUtMC42MiwwLjMyYy0wLjIsMC4wNy0wLjM4LDAuMTItMC41NSwwLjE0ICAgICAgQzIuNiw1NywyLjQ3LDU3LjAxLDIuMzksNTcuMDFIMHYtNi4zM2gxLjkxYzAuNTMsMCwxLDAuMDksMS40LDAuMjZzMC43NCwwLjM5LDEsMC42N2MwLjI3LDAuMjgsMC40NywwLjYsMC42LDAuOTYgICAgICBTNS4xMSw1My4yOSw1LjExLDUzLjY3eiBNMi4wNSw1Ni4yNWMwLjcsMCwxLjItMC4yMiwxLjUxLTAuNjdjMC4zMS0wLjQ0LDAuNDYtMS4wOSwwLjQ2LTEuOTNjMC0wLjI3LTAuMDMtMC41My0wLjA5LTAuNzkgICAgICBjLTAuMDYtMC4yNS0wLjE4LTAuNDktMC4zNi0wLjdjLTAuMTgtMC4yLTAuNDMtMC4zNy0wLjc0LTAuNXMtMC43MS0wLjE5LTEuMi0wLjE5aC0wLjZ2NC43OEgyLjA1eiIvPiYjeGE7CQkJPC9nPiYjeGE7CQkJPGcgaWQ9InNoYXBlNDIxNi0xNSIgdHJhbnNmb3JtPSJ0cmFuc2xhdGUoMTEuODM0OSkiPiYjeGE7CQkJCTx0aXRsZSBpZD0idGl0bGU1MDIyNyI+U2hlZXQuNDIxNjwvdGl0bGU+JiN4YTsJCQkJPHBhdGggaWQ9InBhdGg1MDIyOSIgaW5rc2NhcGU6Y29ubmVjdG9yLWN1cnZhdHVyZT0iMCIgc3R5bGU9ImZpbGw6I0ZGRkZGRjsiIGQ9Ik0xLjA1LDUxLjQ3djEuOTloMi42NHYwLjdIMS4wNXYyLjg1SDB2LTYuMzMgICAgICBoMy45NnYwLjc5SDEuMDV6Ii8+JiN4YTsJCQk8L2c+JiN4YTsJCTwvZz4mI3hhOwk8L2c+JiN4YTs8L2c+JiN4YTs8L3N2Zz4=;" vertex="1" parent="1">
          <mxGeometry x="1155" y="566" width="27" height="35" as="geometry" />
        </mxCell>
        <mxCell id="2Zz69iPxBMQuEs3rhBV3-27" value="" style="shape=image;verticalLabelPosition=bottom;labelBackgroundColor=#ffffff;verticalAlign=top;aspect=fixed;imageAspect=0;image=data:image/svg+xml,PHN2ZyB4bWxuczpjYz0iaHR0cDovL2NyZWF0aXZlY29tbW9ucy5vcmcvbnMjIiB4bWxuczpkYz0iaHR0cDovL3B1cmwub3JnL2RjL2VsZW1lbnRzLzEuMS8iIHhtbG5zOmlua3NjYXBlPSJodHRwOi8vd3d3Lmlua3NjYXBlLm9yZy9uYW1lc3BhY2VzL2lua3NjYXBlIiB4bWxuczpyZGY9Imh0dHA6Ly93d3cudzMub3JnLzE5OTkvMDIvMjItcmRmLXN5bnRheC1ucyMiIHhtbG5zOnNvZGlwb2RpPSJodHRwOi8vc29kaXBvZGkuc291cmNlZm9yZ2UubmV0L0RURC9zb2RpcG9kaS0wLmR0ZCIgeG1sbnM6c3ZnPSJodHRwOi8vd3d3LnczLm9yZy8yMDAwL3N2ZyIgeG1sbnM9Imh0dHA6Ly93d3cudzMub3JnLzIwMDAvc3ZnIiB4bWxuczp4bGluaz0iaHR0cDovL3d3dy53My5vcmcvMTk5OS94bGluayIgdmVyc2lvbj0iMS4xIiBpZD0ic3ZnNTAyMzYiIGlua3NjYXBlOnZlcnNpb249IjAuOTIuMyAoMjQwNTU0NiwgMjAxOC0wMy0xMSkiIHNvZGlwb2RpOmRvY25hbWU9InBkZi5zdmciIHg9IjBweCIgeT0iMHB4IiB2aWV3Qm94PSIwIDAgMjYuOTkgMzUuMTUiIHN0eWxlPSJlbmFibGUtYmFja2dyb3VuZDpuZXcgMCAwIDI2Ljk5IDM1LjE1OyIgeG1sOnNwYWNlPSJwcmVzZXJ2ZSI+JiN4YTs8c29kaXBvZGk6bmFtZWR2aWV3IGJvcmRlcmNvbG9yPSIjNjY2NjY2IiBib3JkZXJvcGFjaXR5PSIxIiBmaXQtbWFyZ2luLWJvdHRvbT0iMCIgZml0LW1hcmdpbi1sZWZ0PSIwIiBmaXQtbWFyZ2luLXJpZ2h0PSIwIiBmaXQtbWFyZ2luLXRvcD0iMCIgZ3JpZHRvbGVyYW5jZT0iMTAiIGd1aWRldG9sZXJhbmNlPSIxMCIgaWQ9Im5hbWVkdmlldzUwMjM4IiBpbmtzY2FwZTpjdXJyZW50LWxheWVyPSJzdmc1MDIzNiIgaW5rc2NhcGU6Y3g9IjE3Ljk5NDM4NCIgaW5rc2NhcGU6Y3k9IjIzLjQzNTg1IiBpbmtzY2FwZTpwYWdlb3BhY2l0eT0iMCIgaW5rc2NhcGU6cGFnZXNoYWRvdz0iMiIgaW5rc2NhcGU6d2luZG93LWhlaWdodD0iMTAxNyIgaW5rc2NhcGU6d2luZG93LW1heGltaXplZD0iMSIgaW5rc2NhcGU6d2luZG93LXdpZHRoPSIxOTIwIiBpbmtzY2FwZTp3aW5kb3cteD0iLTgiIGlua3NjYXBlOndpbmRvdy15PSItOCIgaW5rc2NhcGU6em9vbT0iMTEuNDA2MDg5IiBvYmplY3R0b2xlcmFuY2U9IjEwIiBwYWdlY29sb3I9IiNmZmZmZmYiIHNob3dncmlkPSJmYWxzZSI+JiN4YTsJPC9zb2RpcG9kaTpuYW1lZHZpZXc+JiN4YTs8ZyBpZD0iZzUwMjM0IiB0cmFuc2Zvcm09InRyYW5zbGF0ZSgtMTAuOTI4NiwtMTAuOTMxNDM0KSI+JiN4YTsJPHRpdGxlIGlkPSJ0aXRsZTUwMTkxIj5QYWdlLTE8L3RpdGxlPiYjeGE7CTxnIGlkPSJncm91cDQyMDgtMSIgdHJhbnNmb3JtPSJ0cmFuc2xhdGUoMTAuOTI4NiwtMTAuOTI4NikiPiYjeGE7CQk8dGl0bGUgaWQ9InRpdGxlNTAxOTMiPlBERjwvdGl0bGU+JiN4YTsJCTxnIGlkPSJzaGFwZTQyMDktMiI+JiN4YTsJCQk8dGl0bGUgaWQ9InRpdGxlNTAxOTUiPlNoZWV0LjQyMDk8L3RpdGxlPiYjeGE7CQkJPHBhdGggaWQ9InBhdGg1MDE5NyIgaW5rc2NhcGU6Y29ubmVjdG9yLWN1cnZhdHVyZT0iMCIgc3R5bGU9ImZpbGw6I0U5RTlFMDsiIGQ9Ik0xOS4xNCwyMS44NkgwLjkyQzAuNDEsMjEuODYsMCwyMi4yNywwLDIzLjA3ICAgICB2MzMuMzFjMCwwLjIyLDAuNDEsMC42MywwLjkyLDAuNjNoMjUuMTVjMC41MSwwLDAuOTItMC40MSwwLjkyLTAuNjNWMzBjMC0wLjQzLTAuMDYtMC41Ny0wLjE2LTAuNjhsLTcuMy03LjMgICAgIEMxOS40MiwyMS45MiwxOS4yOCwyMS44NiwxOS4xNCwyMS44NnoiLz4mI3hhOwkJPC9nPiYjeGE7CQk8ZyBpZD0ic2hhcGU0MjEwLTQiIHRyYW5zZm9ybT0idHJhbnNsYXRlKDE5LjQ1OTEsLTI3LjYxOTMpIj4mI3hhOwkJCTx0aXRsZSBpZD0idGl0bGU1MDIwMCI+U2hlZXQuNDIxMDwvdGl0bGU+JiN4YTsJCQk8cGF0aCBpZD0icGF0aDUwMjAyIiBpbmtzY2FwZTpjb25uZWN0b3ItY3VydmF0dXJlPSIwIiBzdHlsZT0iZmlsbDojRDlEN0NBOyIgZD0iTTAsNDkuNTd2Ny40NGg3LjQ0TDAsNDkuNTd6Ii8+JiN4YTsJCTwvZz4mI3hhOwkJPGcgaWQ9InNoYXBlNDIxMS02IiB0cmFuc2Zvcm09InRyYW5zbGF0ZSg2LjgyMDcyLC0xNC4yMzQpIj4mI3hhOwkJCTx0aXRsZSBpZD0idGl0bGU1MDIwNSI+U2hlZXQuNDIxMTwvdGl0bGU+JiN4YTsJCQk8cGF0aCBpZD0icGF0aDUwMjA3IiBpbmtzY2FwZTpjb25uZWN0b3ItY3VydmF0dXJlPSIwIiBzdHlsZT0iZmlsbDojQzAwMDAwOyIgZD0iTTEuMzUsNTcuMDFjLTAuMjIsMC0wLjQzLTAuMDctMC42MS0wLjIxICAgICBjLTAuNjUtMC40OS0wLjc0LTEuMDMtMC43LTEuNGMwLjEyLTEuMDIsMS4zOC0yLjA5LDMuNzYtMy4xOGMwLjk0LTIuMDcsMS44NC00LjYyLDIuMzgtNi43NWMtMC42My0xLjM3LTEuMjQtMy4xMy0wLjgtNC4xNyAgICAgYzAuMTYtMC4zNywwLjM1LTAuNjQsMC43Mi0wLjc2YzAuMTQtMC4wNSwwLjUtMC4xMSwwLjYzLTAuMTFjMC4zMiwwLDAuNiwwLjQsMC44LDAuNjZjMC4xOCwwLjIzLDAuNiwwLjczLTAuMjQsNC4yNyAgICAgYzAuODUsMS43NCwyLjA1LDMuNTIsMy4yLDQuNzRjMC44Mi0wLjE1LDEuNTMtMC4yMiwyLjEtMC4yMmMwLjk5LDAsMS41OCwwLjIzLDEuODIsMC43YzAuMjEsMC4zOSwwLjEyLDAuODUtMC4yNCwxLjM1ICAgICBjLTAuMzUsMC40OS0wLjgzLDAuNzUtMS4zOSwwLjc1Yy0wLjc3LDAtMS42Ni0wLjQ4LTIuNjUtMS40M2MtMS43OCwwLjM3LTMuODYsMS4wMy01LjU0LDEuNzdjLTAuNTIsMS4xMS0xLjAzLDIuMDEtMS40OSwyLjY3ICAgICBDMi40NSw1Ni41OSwxLjksNTcuMDEsMS4zNSw1Ny4wMXogTTMuMDIsNTMuNzljLTEuMzQsMC43Ni0xLjg5LDEuMzctMS45MywxLjcyYzAsMC4wNi0wLjAyLDAuMjEsMC4yNywwLjQ0ICAgICBDMS40Niw1NS45MiwyLDU1LjY3LDMuMDIsNTMuNzl6IE0xMS41OCw1MWMwLjUxLDAuNCwwLjY0LDAuNiwwLjk3LDAuNmMwLjE1LDAsMC41Ny0wLjAxLDAuNzYtMC4yOCAgICAgYzAuMDktMC4xMywwLjEzLTAuMjIsMC4xNC0wLjI2Yy0wLjA3LTAuMDQtMC4xOC0wLjEzLTAuNzMtMC4xM0MxMi40LDUwLjk0LDEyLDUwLjk1LDExLjU4LDUxeiBNNi44OSw0Ni44NyAgICAgYy0wLjQ1LDEuNTUtMS4wNCwzLjIzLTEuNjgsNC43NWMxLjMxLTAuNTEsMi43NC0wLjk1LDQuMDgtMS4yN0M4LjQ0LDQ5LjM3LDcuNiw0OC4xNCw2Ljg5LDQ2Ljg3eiBNNi41MSw0MS41NiAgICAgYy0wLjA2LDAuMDItMC44NCwxLjEsMC4wNiwyLjAyQzcuMTcsNDIuMjUsNi41NCw0MS41NSw2LjUxLDQxLjU2eiIvPiYjeGE7CQk8L2c+JiN4YTsJCTxnIGlkPSJzaGFwZTQyMTItOCI+JiN4YTsJCQk8dGl0bGUgaWQ9InRpdGxlNTAyMTAiPlNoZWV0LjQyMTI8L3RpdGxlPiYjeGE7CQkJPHBhdGggaWQ9InBhdGg1MDIxMiIgaW5rc2NhcGU6Y29ubmVjdG9yLWN1cnZhdHVyZT0iMCIgc3R5bGU9ImZpbGw6I0MwMDAwMDsiIGQ9Ik0yNi4wNyw1Ny4wMUgwLjkyQzAuNDEsNTcuMDEsMCw1Ni42LDAsNTYuMDkgICAgIHYtOS43NWgyNi45OXY5Ljc1QzI2Ljk5LDU2LjYsMjYuNTgsNTcuMDEsMjYuMDcsNTcuMDF6Ii8+JiN4YTsJCTwvZz4mI3hhOwkJPGcgaWQ9Imdyb3VwNDIxMy0xMCIgdHJhbnNmb3JtPSJ0cmFuc2xhdGUoNS44MDI1NywtMS44ODMxNCkiPiYjeGE7CQkJPHRpdGxlIGlkPSJ0aXRsZTUwMjE1Ij5TaGVldC40MjEzPC90aXRsZT4mI3hhOwkJCTxnIGlkPSJzaGFwZTQyMTQtMTEiPiYjeGE7CQkJCTx0aXRsZSBpZD0idGl0bGU1MDIxNyI+U2hlZXQuNDIxNDwvdGl0bGU+JiN4YTsJCQkJPHBhdGggaWQ9InBhdGg1MDIxOSIgaW5rc2NhcGU6Y29ubmVjdG9yLWN1cnZhdHVyZT0iMCIgc3R5bGU9ImZpbGw6I0ZGRkZGRjsiIGQ9Ik0xLjAzLDU3LjAxSDB2LTYuMzNoMS44MiAgICAgIGMwLjI3LDAsMC41MywwLjA1LDAuOCwwLjEzYzAuMjYsMC4wOSwwLjUsMC4yMiwwLjcsMC4zOWMwLjIxLDAuMTcsMC4zOCwwLjM4LDAuNTEsMC42MmMwLjEzLDAuMjQsMC4xOSwwLjUyLDAuMTksMC44MiAgICAgIGMwLDAuMzItMC4wNSwwLjYxLTAuMTYsMC44N2MtMC4xMSwwLjI2LTAuMjYsMC40OC0wLjQ1LDAuNjZjLTAuMiwwLjE4LTAuNDMsMC4zMS0wLjcxLDAuNDFjLTAuMjcsMC4xLTAuNTgsMC4xNS0wLjkxLDAuMTVIMS4wMyAgICAgIFY1Ny4wMXogTTEuMDMsNTEuNDd2Mi41aDAuOTRjMC4xMywwLDAuMjUtMC4wMiwwLjM4LTAuMDZjMC4xMi0wLjA1LDAuMjMtMC4xMiwwLjM0LTAuMjFjMC4xLTAuMSwwLjE4LTAuMjQsMC4yNS0wLjQxICAgICAgQzMsNTMuMTEsMy4wMyw1Mi45LDMuMDMsNTIuNjRjMC0wLjEtMC4wMi0wLjIyLTAuMDQtMC4zNmMtMC4wMy0wLjEzLTAuMDktMC4yNi0wLjE4LTAuMzhjLTAuMDktMC4xMi0wLjIxLTAuMjMtMC4zNy0wLjMxICAgICAgYy0wLjE2LTAuMDgtMC4zNy0wLjEyLTAuNjQtMC4xMkwxLjAzLDUxLjQ3eiIvPiYjeGE7CQkJPC9nPiYjeGE7CQkJPGcgaWQ9InNoYXBlNDIxNS0xMyIgdHJhbnNmb3JtPSJ0cmFuc2xhdGUoNS4yMzUxMikiPiYjeGE7CQkJCTx0aXRsZSBpZD0idGl0bGU1MDIyMiI+U2hlZXQuNDIxNTwvdGl0bGU+JiN4YTsJCQkJPHBhdGggaWQ9InBhdGg1MDIyNCIgaW5rc2NhcGU6Y29ubmVjdG9yLWN1cnZhdHVyZT0iMCIgc3R5bGU9ImZpbGw6I0ZGRkZGRjsiIGQ9Ik01LjExLDUzLjY3YzAsMC41Mi0wLjA2LDAuOTctMC4xNywxLjM0ICAgICAgYy0wLjExLDAuMzYtMC4yNSwwLjY3LTAuNDMsMC45MmMtMC4xNywwLjI1LTAuMzYsMC40NS0wLjU4LDAuNTljLTAuMjEsMC4xNC0wLjQyLDAuMjUtMC42MiwwLjMyYy0wLjIsMC4wNy0wLjM4LDAuMTItMC41NSwwLjE0ICAgICAgQzIuNiw1NywyLjQ3LDU3LjAxLDIuMzksNTcuMDFIMHYtNi4zM2gxLjkxYzAuNTMsMCwxLDAuMDksMS40LDAuMjZzMC43NCwwLjM5LDEsMC42N2MwLjI3LDAuMjgsMC40NywwLjYsMC42LDAuOTYgICAgICBTNS4xMSw1My4yOSw1LjExLDUzLjY3eiBNMi4wNSw1Ni4yNWMwLjcsMCwxLjItMC4yMiwxLjUxLTAuNjdjMC4zMS0wLjQ0LDAuNDYtMS4wOSwwLjQ2LTEuOTNjMC0wLjI3LTAuMDMtMC41My0wLjA5LTAuNzkgICAgICBjLTAuMDYtMC4yNS0wLjE4LTAuNDktMC4zNi0wLjdjLTAuMTgtMC4yLTAuNDMtMC4zNy0wLjc0LTAuNXMtMC43MS0wLjE5LTEuMi0wLjE5aC0wLjZ2NC43OEgyLjA1eiIvPiYjeGE7CQkJPC9nPiYjeGE7CQkJPGcgaWQ9InNoYXBlNDIxNi0xNSIgdHJhbnNmb3JtPSJ0cmFuc2xhdGUoMTEuODM0OSkiPiYjeGE7CQkJCTx0aXRsZSBpZD0idGl0bGU1MDIyNyI+U2hlZXQuNDIxNjwvdGl0bGU+JiN4YTsJCQkJPHBhdGggaWQ9InBhdGg1MDIyOSIgaW5rc2NhcGU6Y29ubmVjdG9yLWN1cnZhdHVyZT0iMCIgc3R5bGU9ImZpbGw6I0ZGRkZGRjsiIGQ9Ik0xLjA1LDUxLjQ3djEuOTloMi42NHYwLjdIMS4wNXYyLjg1SDB2LTYuMzMgICAgICBoMy45NnYwLjc5SDEuMDV6Ii8+JiN4YTsJCQk8L2c+JiN4YTsJCTwvZz4mI3hhOwk8L2c+JiN4YTs8L2c+JiN4YTs8L3N2Zz4=;" vertex="1" parent="1">
          <mxGeometry x="640" y="584" width="27" height="35" as="geometry" />
        </mxCell>
        <mxCell id="2Zz69iPxBMQuEs3rhBV3-28" value="" style="endArrow=classic;html=1;rounded=0;fontColor=#ffffff;strokeColor=#ffffff;entryX=1;entryY=0.915;entryDx=0;entryDy=0;strokeWidth=2;entryPerimeter=0;exitX=0.013;exitY=0.888;exitDx=0;exitDy=0;exitPerimeter=0;" edge="1" parent="1" source="2Zz69iPxBMQuEs3rhBV3-5" target="23046e2b9bb16c14-50">
          <mxGeometry width="50" height="50" relative="1" as="geometry">
            <mxPoint x="526" y="618" as="sourcePoint" />
            <mxPoint x="770" y="613" as="targetPoint" />
            <Array as="points" />
          </mxGeometry>
        </mxCell>
        <mxCell id="2Zz69iPxBMQuEs3rhBV3-29" value="" style="verticalLabelPosition=bottom;html=1;verticalAlign=top;strokeColor=none;fillColor=#FFFFFF;shape=mxgraph.azure.computer;rounded=0;shadow=0;fontSize=12;fontColor=#000000;align=center;" vertex="1" parent="1">
          <mxGeometry x="451" y="579.5" width="50" height="45" as="geometry" />
        </mxCell>
        <mxCell id="2Zz69iPxBMQuEs3rhBV3-30" value="" style="verticalLabelPosition=bottom;html=1;verticalAlign=top;strokeColor=none;fillColor=#FFFFFF;shape=mxgraph.azure.computer;rounded=0;shadow=0;fontSize=12;fontColor=#000000;align=center;" vertex="1" parent="1">
          <mxGeometry x="450" y="429.5" width="50" height="45" as="geometry" />
        </mxCell>
      </root>
    </mxGraphModel>
  </diagram>
</mxfile>
